<svg xmlns="http://www.w3.org/2000/svg" fill="none" viewBox="0 0 17 17" id="Heart--Streamline-Core.svg" height="17" width="17"><desc>Heart Streamline Icon: https://streamlinehq.com</desc><g id="heart--reward-social-rating-media-heart-it-like-favorite-love"><path id="Union" fill="#ff0005" fill-rule="evenodd" d="M4.886042857142856 1.3176457142857143c1.1906435714285712 0.08627499999999999 2.4312914285714284 0.6666792857142857 3.6189114285714283 1.841342857142857 1.1873164285714286 -1.174335714285714 2.4268714285714283 -1.7536349999999998 3.6164099999999997 -1.8379914285714285 1.3425142857142855 -0.09521214285714284 2.529357142857143 0.44739142857142855 3.3880999999999997 1.303475 1.6882214285714285 1.6831699999999998 2.218378571428571 4.728865714285714 0.12349285714285713 6.823799999999999 -0.0070428571428571415 0.007067142857142856 -0.014328571428571427 0.013964285714285714 -0.021735714285714282 0.020667142857142856L8.912541428571428 15.536664285714284c-0.23133357142857142 0.2094642857142857 -0.5838528571428572 0.2094642857142857 -0.8151864285714285 0L1.398650714285714 9.468939285714285c-0.007407142857142857 -0.006702857142857142 -0.014644285714285712 -0.0136 -0.02171142857142857 -0.020667142857142856 -2.105850714285714 -2.105850714285714 -1.5785204285714285 -5.151898571428571 0.1152842857142857 -6.8337571428571415 0.860795 -0.8547357142857142 2.0500542857142854 -1.3942307142857142 3.3938192857142853 -1.2968692857142854Z" clip-rule="evenodd" stroke-width="1"></path></g></svg>