<svg width="19" height="13" viewBox="0 0 19 13" fill="none" xmlns="http://www.w3.org/2000/svg">
<path d="M9.49999 4.125C10.1299 4.125 10.734 4.37522 11.1794 4.82062C11.6248 5.26602 11.875 5.87011 11.875 6.5C11.875 7.12989 11.6248 7.73398 11.1794 8.17938C10.734 8.62478 10.1299 8.875 9.49999 8.875C8.8701 8.875 8.26601 8.62478 7.82061 8.17938C7.37521 7.73398 7.12499 7.12989 7.12499 6.5C7.12499 5.87011 7.37521 5.26602 7.82061 4.82062C8.26601 4.37522 8.8701 4.125 9.49999 4.125ZM9.49999 0.5625C13.4583 0.5625 16.8387 3.02458 18.2083 6.5C16.8387 9.97542 13.4583 12.4375 9.49999 12.4375C5.54166 12.4375 2.16124 9.97542 0.791656 6.5C2.16124 3.02458 5.54166 0.5625 9.49999 0.5625ZM2.51749 6.5C3.15736 7.80649 4.15094 8.90726 5.38529 9.67716C6.61963 10.4471 8.04522 10.8552 9.49999 10.8552C10.9548 10.8552 12.3804 10.4471 13.6147 9.67716C14.849 8.90726 15.8426 7.80649 16.4825 6.5C15.8426 5.19351 14.849 4.09274 13.6147 3.32284C12.3804 2.55294 10.9548 2.14479 9.49999 2.14479C8.04522 2.14479 6.61963 2.55294 5.38529 3.32284C4.15094 4.09274 3.15736 5.19351 2.51749 6.5Z" fill="#FEFEFE"/>
</svg>
