<svg xmlns="http://www.w3.org/2000/svg" fill="none" viewBox="0 0 19 19" id="Eye-Optic--Streamline-Core.svg" height="19" width="19"><desc>Eye Optic Streamline Icon: https://streamlinehq.com</desc><g id="eye-optic--health-medical-eye-optic"><path id="Subtract" fill="#ffffff" fill-rule="evenodd" d="M5.906964285714286 1.7206400000000002c0.5370757142857143 -0.16600571428571428 1.1070350000000002 0.1347914285714286 1.2730542857142857 0.6718671428571429l0.5529542857142857 1.7888771428571428c0.5531578571428571 -0.10273571428571429 1.1420085714285715 -0.15993928571428573 1.7673528571428572 -0.15993928571428573 0.6251 0 1.2137607142857143 0.05716285714285714 1.7667421428571428 0.1598307142857143l0.5529135714285714 -1.7887685714285717c0.1660192857142857 -0.5370757142857143 0.7359785714285715 -0.8378728571428572 1.2730542857142857 -0.6718671428571429 0.5370214285714285 0.1660192857142857 0.8379 0.7359785714285715 0.6719214285714286 1.2730542857142857L13.21467642857143 4.773750000000001c1.0582592857142856 0.45695 1.9355164285714286 1.0736492857142856 2.641095 1.7109092857142858l1.337057142857143 -1.3370842857142857c0.3975071428571429 -0.3975071428571429 1.0420142857142858 -0.3975071428571429 1.4395214285714286 0 0.3975071428571429 0.39749357142857145 0.3975071428571429 1.04196 0 1.4394671428571428l-1.4009785714285714 1.4009785714285714c0.20031428571428572 0.26468357142857146 0.36955 0.5132171428571429 0.5090642857142857 0.7338207142857144 0.1682857142857143 0.26602714285714285 0.2958571428571429 0.49553357142857146 0.38434285714285715 0.6693157142857143 0.04397142857142857 0.08617857142857144 0.08075 0.16348142857142858 0.10897857142857142 0.22827142857142857 0.013571428571428573 0.031187142857142858 0.02904285714285714 0.06818285714285714 0.04315714285714286 0.10653571428571429 0.0066500000000000005 0.01817214285714286 0.017235714285714285 0.04820571428571429 0.02768571428571429 0.08437357142857144 0.0051571428571428575 0.017955000000000002 0.013164285714285715 0.04729642857142857 0.020492857142857146 0.08361357142857143 0.0052928571428571426 0.026097857142857145 0.020764285714285714 0.10466285714285714 0.020764285714285714 0.20612285714285714 0 0.10147357142857144 -0.015471428571428573 0.180025 -0.020764285714285714 0.20612285714285714 -0.007328571428571429 0.03631714285714286 -0.015335714285714286 0.06565857142857143 -0.020492857142857146 0.08362714285714286 -0.010450000000000001 0.03616785714285715 -0.021035714285714286 0.06618785714285715 -0.02768571428571429 0.08436 -0.014114285714285715 0.03835285714285715 -0.029585714285714288 0.07536214285714286 -0.04315714285714286 0.10653571428571429 -0.02822857142857143 0.06479 -0.06500714285714286 0.14210642857142858 -0.10897857142857142 0.22828500000000002 -0.08848571428571428 0.1737685714285714 -0.2160571428571429 0.40327500000000005 -0.38434285714285715 0.6693157142857143 -0.33589285714285716 0.5311721428571429 -0.8444142857142857 1.2242514285714285 -1.5434785714285715 1.9148607142857144 -1.4032857142857145 1.3861042857142856 -3.6037435714285717 2.78559 -6.696631428571429 2.78559 -3.0929014285714285 0 -5.2933457142857145 -1.3994857142857142 -6.696590714285715 -2.78559 -0.6991321428571429 -0.6906092857142858 -1.2076128571428573 -1.3836885714285716 -1.5435817142857142 -1.9148607142857144 -0.1682667142857143 -0.2660407142857143 -0.2958503571428571 -0.4955471428571429 -0.3843537142857143 -0.6693157142857143 -0.04389135714285715 -0.08617857142857144 -0.08063735714285715 -0.163495 -0.1088917142857143 -0.22828500000000002 -0.013595857142857144 -0.031173571428571432 -0.029048285714285714 -0.06818285714285714 -0.04311778571428572 -0.10653571428571429 -0.006664928571428571 -0.01817214285714286 -0.0172995 -0.04819214285714286 -0.027703357142857144 -0.08436 -0.0051666428571428575 -0.01796857142857143 -0.013148000000000002 -0.047310000000000005 -0.02053357142857143 -0.08362714285714286 -0.005306428571428572 -0.026097857142857145 -0.020837571428571428 -0.10464928571428572 -0.020837571428571428 -0.20612285714285714 0 -0.10146 0.015531142857142856 -0.180025 0.020837571428571428 -0.20612285714285714 0.007385571428571429 -0.03631714285714286 0.015366928571428571 -0.06565857142857143 0.02053357142857143 -0.08361357142857143 0.010403857142857144 -0.03616785714285715 0.021038428571428573 -0.06620142857142856 0.027703357142857144 -0.08437357142857144 0.0140695 -0.03835285714285715 0.029521928571428574 -0.07534857142857143 0.04311778571428572 -0.10653571428571429 0.028254357142857144 -0.06479 0.06500035714285715 -0.14209285714285716 0.1088917142857143 -0.22828500000000002 0.08850335714285713 -0.1737685714285714 0.216087 -0.40327500000000005 0.3843537142857143 -0.6693021428571428 0.13946814285714285 -0.22050857142857147 0.30866314285714286 -0.46892 0.508896 -0.7334678571428571L0.36770292857142856 6.587042142857142c-0.39749737142857144 -0.3975071428571429 -0.39749737142857144 -1.0419735714285714 0 -1.4394671428571428 0.397499 -0.3975071428571429 1.0419749285714286 -0.3975071428571429 1.4394685000000003 0l1.3373964285714286 1.3373964285714286c0.7054971428571428 -0.63726 1.5826457142857144 -1.2539864285714286 2.640837142857143 -1.710977142857143l-0.5503078571428572 -1.7803000000000002c-0.1660192857142857 -0.5370757142857143 0.1347914285714286 -1.1070350000000002 0.6718671428571429 -1.2730542857142857Zm2.951147857142857 11.180102142857145c1.5469664285714286 0.35424142857142854 3.0881921428571433 -0.6126685714285715 3.44242 -2.159635 0.35424142857142854 -1.5469664285714286 -0.6126685714285715 -3.0881921428571433 -2.159635 -3.44242 -1.5469664285714286 -0.3542278571428572 -3.0881921428571433 0.6126685714285715 -3.44242 2.159635 -0.3542278571428572 1.5469664285714286 0.6126685714285715 3.0881921428571433 2.159635 3.44242Z" clip-rule="evenodd" stroke-width="1"></path></g></svg>